<svg xmlns="http://www.w3.org/2000/svg" width="514" height="135" fill="none"><path fill="#fff" d="M50.614 52.159 47.659 74.83 57.846 52.16H79.07c2.445 0 3.903 2.724 2.547 4.758l-51.07 76.604c-1.799 2.699-6.01 1.113-5.58-2.102L35.18 54.815a3.06 3.06 0 0 1 3.034-2.656h12.399Z"/><path fill="#fff" d="M46.966 80.165a3.061 3.061 0 0 1-3.036 2.665H3.066c-2.441 0-3.9-2.718-2.551-4.752l50.86-76.699c1.793-2.702 6.006-1.128 5.587 2.087l-9.996 76.699ZM384.91 38.309v6.956l.265-.163 1.629 2.638-1.875 1.158-.014-.022v8.817l.443.152-.443 1.29v3.097l-.005.02.005 44.131h-16.64V38.309h16.635Z"/><path fill="#fff" fill-rule="evenodd" d="M150.499 106.287c-8.114 0-14.78-.836-20-2.508-5.219-1.672-9.276-3.975-12.17-6.911-2.895-2.936-4.934-6.36-6.117-10.275-1.141-3.914-1.712-8.094-1.712-12.538V45.8c0-4.567.571-8.828 1.712-12.783 1.142-3.995 3.16-7.502 6.055-10.52 2.895-3.016 6.952-5.361 12.171-7.033 5.219-1.712 11.906-2.568 20.061-2.568 7.788 0 14.189.897 19.204 2.69 5.056 1.795 8.991 4.261 11.804 7.401 2.855 3.099 4.832 6.687 5.933 10.764 1.142 4.078 1.712 8.4 1.712 12.966v26.36c0 4.445-.57 8.665-1.712 12.66-1.142 3.956-3.14 7.483-5.994 10.581-2.589 2.853-6.112 5.152-10.567 6.899l12.199 16.608h-19.014l-8.857-13.653a92.414 92.414 0 0 1-4.708.116Zm0-14.25c6.85 0 11.967-1.122 15.351-3.365 3.384-2.242 5.077-6.442 5.077-12.599v-32.72c0-6.076-1.713-10.296-5.138-12.66-3.384-2.366-8.481-3.548-15.29-3.548-6.728 0-12.049 1.162-15.963 3.486-3.873 2.283-5.81 6.524-5.81 12.721v32.721c0 6.198 1.937 10.418 5.81 12.66 3.874 2.202 9.195 3.303 15.963 3.303ZM212.73 106.355c-5.627 0-10.214-1.631-13.761-4.893-3.507-3.262-5.26-7.604-5.26-13.027 0-3.099.632-5.851 1.896-8.257 1.264-2.405 3.567-4.628 6.911-6.666 3.343-2.08 8.134-4.098 14.373-6.055 5.096-1.631 8.847-3.14 11.253-4.526 2.447-1.386 3.67-3.221 3.67-5.505 0-2.65-.795-4.627-2.386-5.932-1.549-1.346-4.199-2.018-7.95-2.018-4.159 0-6.989.37-9.621 3.355-1.66 1.883-2.483 3.402-2.723 5.9-.074.777-.151 1.998-.151 1.998h-15.272v-2.331c0-6.36 4.077-11.063 8.318-14.855 4.24-3.792 10.845-5.688 19.816-5.688 6.564 0 11.763.918 15.596 2.752 3.832 1.835 6.584 4.424 8.256 7.768 1.672 3.302 2.508 7.217 2.508 11.742v25.994c0 2.976 1.101 5.871 1.101 5.871s1.357 3.207 3.396 3.207v11.194h-3.782c-4.567 0-7.667-1.577-10.195-2.841-2.528-1.264-4.383-3.222-5.566-5.872-1.753 2.324-4.403 4.363-7.951 6.116-3.506 1.713-7.665 2.569-12.476 2.569Zm5.63-11.166c2.039 0 4.359-.475 7.091-1.617 2.732-1.141 4.852-2.895 6.361-5.26V71.678c-1.101.897-2.854 1.896-5.26 2.997a133.93 133.93 0 0 1-7.767 3.119c-3.629 1.345-6.015 2.834-7.156 4.465-1.142 1.63-1.713 3.384-1.713 5.26 0 2.65.775 4.607 2.324 5.87 1.55 1.265 3.633 1.8 6.12 1.8Z" clip-rule="evenodd"/><path fill="#fff" d="M266.012 49.503v34.794c0 5.627.828 10.084 2.663 13.305 1.835 3.18 4.771 5.423 8.807 6.728 4.037 1.304 9.306 2.053 15.911 2.053h4.69V95.189h-3.782c-5.015 0-7.319-2.031-9.113-3.58-1.753-1.591-2.63-4.425-2.63-8.502V49.503h15.525V38.31h-22.087l6.656-8.623V18.643h-14.825l-1.361 19.666h-9.228v11.194h8.774Z"/><path fill="#fff" fill-rule="evenodd" d="M330.91 106.383c-10.357 0-17.635-2.013-21.957-5.845-4.322-3.833-6.483-9.011-6.483-15.535V59.132c0-6.687 2.487-11.906 7.461-15.657 5.015-3.792 11.968-5.166 20.979-5.166 8.97 0 16.023 1.374 21.038 5.166 5.016 3.751 7.553 9.023 7.553 15.71v25.717c0 4.322-.927 8.194-2.721 11.415-1.794 3.18-4.77 5.648-8.929 7.401-4.118 1.712-9.806 2.665-16.941 2.665Zm0-11.194c3.547 0 6.462-1.114 8.623-2.419 2.202-1.345 3.303-3.69 3.303-7.033V58.398c0-3.344-1.04-5.668-3.12-6.972-2.079-1.346-5.055-1.923-8.806-1.923-3.589 0-6.402.577-8.563 1.923-2.161 1.304-3.242 3.628-3.242 6.972v27.339c0 3.343 1.02 5.688 3.058 7.033 2.039 1.305 4.914 2.419 8.747 2.419Z" clip-rule="evenodd"/><path fill="#fff" d="m409.724 95.189 26.323-45.686h-26.323V38.31h43.568v12.556l-26.019 44.324h26.019v11.194h-43.568V95.189Z"/><path fill="#fff" fill-rule="evenodd" d="M457.538 59.226v25.626c0 5.627 1.223 10.03 3.67 13.21 2.487 3.181 5.871 5.444 10.152 6.79 4.282 1.304 9.054 1.531 14.395 1.531 9.297 0 16.267-1.144 20.834-4.284 4.567-3.14 6.911-8.733 6.911-16.847h-15.43c0 4.037-.859 6.695-2.49 8.04-1.59 1.305-4.641 1.897-9.371 1.897-3.955 0-7.04-.429-9.038-1.407-1.998-1.02-2.997-3.466-2.997-7.34l-.006-10.57H513.5V59.838c0-6.605-2.141-11.844-6.422-15.718-4.24-3.873-11.416-5.81-21.528-5.81-8.522 0-15.331 1.814-20.428 5.443-5.056 3.63-7.584 8.787-7.584 15.474Zm40.229-1.506.006 7.867h-23.599v-7.4c0-3.507 1.321-6.192 3.564-7.17 2.283-1.02 4.825-1.514 8.169-1.514 2.242 0 4.297.28 6.051.605 1.794.286 3.214 1.31 4.234 2.451 1.06 1.101 1.575 2.714 1.575 5.16Z" clip-rule="evenodd"/><path fill="#fff" d="m312.303 29.686 12.743-16.791h12.11l12.743 16.791h-10.948l-7.85-5.721-7.851 5.721h-10.947ZM403.371 38.428a34.607 34.607 0 0 0-5.295.789c-3.17.717-4.56 1.14-7.261 2.42-2.235 1.058-4.048 2.33-5.501 3.348l-.399.28v13.964a33.04 33.04 0 0 1 18.456-9.352V38.428Z"/></svg>